<svg xmlns="http://www.w3.org/2000/svg" width="86" height="34" viewBox="0 0 86 34" fill="none">
  <g clip-path="url(#clip0_2424_3736)">
    <path d="M14.9988 6.31342L18.3155 15.6997C20.85 16.0096 23.2728 16.6597 25.5127 17.5993L17.3251 0H12.6776L4.57126 17.4216C6.80609 16.5226 9.20347 15.9334 11.6923 15.6693L14.9988 6.31342ZM26.8536 20.4843C25.6905 19.8494 24.4512 19.3059 23.1509 18.8641C22.8258 18.7523 22.4957 18.6507 22.1655 18.5542C21.876 18.4679 21.5865 18.3917 21.2919 18.3206C21.1091 18.2749 20.9313 18.2292 20.7484 18.1885C20.5097 18.1327 20.271 18.0768 20.0272 18.0361C19.7174 17.9701 19.4024 17.9142 19.0825 17.8635C17.7212 17.64 16.3194 17.5232 14.882 17.5232C13.536 17.5232 12.2154 17.6197 10.9355 17.8177C8.15716 18.219 5.5617 19.052 3.25575 20.2456L0 27.2498H3.62145C5.00807 26.1527 6.67404 25.2638 8.52286 24.6492C10.2955 24.0448 12.2408 23.6893 14.2623 23.6283C14.4655 23.6232 14.6737 23.6182 14.882 23.6182C17.254 23.6182 19.504 24.0143 21.5103 24.7305C23.2677 25.3451 24.8372 26.2035 26.1527 27.2498H30.0027L26.8536 20.4843Z" fill="#70167B"/>
    <path d="M32.0953 34V10.3717H36.2806L36.5498 13.475V34H32.0953ZM41.6493 27.6561C40.2322 27.6561 39.0335 27.2955 38.0532 26.5742C37.0729 25.853 36.3263 24.8321 35.8082 23.5013C35.2901 22.1757 35.0311 20.6113 35.0311 18.8082C35.0311 17.0051 35.2901 15.4153 35.8082 14.0998C36.3263 12.7843 37.0729 11.7634 38.0532 11.0472C39.0335 10.326 40.2322 9.96533 41.6493 9.96533C43.2035 9.96533 44.5444 10.326 45.6821 11.0472C46.8199 11.7684 47.7036 12.7843 48.3335 14.0998C48.9633 15.4153 49.2782 16.9848 49.2782 18.8082C49.2782 20.6316 48.9633 22.1706 48.3335 23.5013C47.7036 24.827 46.8199 25.853 45.6821 26.5742C44.5444 27.2955 43.1984 27.6561 41.6493 27.6561ZM40.5014 23.5724C41.314 23.5724 42.0251 23.3693 42.6448 22.9629C43.2644 22.5566 43.752 21.9979 44.1127 21.2767C44.4733 20.5554 44.6511 19.7377 44.6511 18.8133C44.6511 17.8888 44.4784 17.0762 44.1279 16.3651C43.7774 15.654 43.2949 15.1004 42.6753 14.694C42.0556 14.2877 41.3394 14.0845 40.5318 14.0845C39.7649 14.0845 39.0792 14.2877 38.4748 14.694C37.8704 15.1004 37.3929 15.654 37.0577 16.3651C36.7225 17.0762 36.5498 17.8888 36.5498 18.8133C36.5498 19.7377 36.7174 20.5554 37.0577 21.2767C37.3929 21.9979 37.8602 22.5617 38.4595 22.9629C39.0538 23.3693 39.7344 23.5724 40.5014 23.5724Z" fill="#70167B"/>
    <path d="M60.3508 27.6561C58.6848 27.6561 57.2119 27.2803 55.9268 26.5235C54.6418 25.7717 53.6361 24.7305 52.9047 23.3998C52.1733 22.0741 51.8076 20.5402 51.8076 18.8082C51.8076 17.0762 52.1835 15.5474 52.9403 14.2166C53.692 12.8909 54.7281 11.8497 56.0436 11.0929C57.3592 10.3412 58.8727 9.96027 60.5844 9.96027C62.0472 9.96027 63.4034 10.3463 64.6529 11.1234C65.9023 11.9005 66.908 13.0382 67.675 14.5315C68.4419 16.0299 68.8229 17.8431 68.8229 19.9815H64.2973C64.3176 18.4984 64.1653 17.3098 63.8402 16.421C63.5151 15.5321 63.058 14.8921 62.4739 14.496C61.8898 14.1049 61.2041 13.9068 60.4168 13.9068C59.5381 13.9068 58.7966 14.0896 58.1871 14.4452C57.5776 14.8058 57.1255 15.3493 56.8208 16.0807C56.516 16.8121 56.3636 17.7619 56.3636 18.9352C56.3636 19.9459 56.5668 20.7941 56.9731 21.4646C57.3795 22.1401 57.9179 22.6531 58.5934 22.9985C59.2689 23.349 60.0105 23.5217 60.8232 23.5217C61.7018 23.5217 62.4129 23.3287 62.9666 22.9477C63.5151 22.5668 63.9418 22.069 64.2313 21.4646L68.4165 23.0849C67.9442 24.0296 67.3296 24.8473 66.5779 25.533C65.8261 26.2187 64.9271 26.7419 63.8961 27.1025C62.8599 27.4631 61.6815 27.6409 60.3508 27.6409V27.6561ZM54.7129 19.9916L54.7485 16.5124H66.6286V19.9916H54.7129Z" fill="#70167B"/>
    <path d="M68.32 27.2498L75.2379 17.5943L80.0631 10.3717H85.3302L78.6104 19.7885L73.6481 27.2498H68.3149H68.32ZM80.4389 27.2498L75.5426 19.7885L68.7568 10.3717H74.0239L78.8492 17.5943L85.7365 27.2498H80.4389Z" fill="#70167B"/>
  </g>
  <defs>
    <clipPath id="clip0_2424_3736">
      <rect width="85.7365" height="34" fill="white"/>
    </clipPath>
  </defs>
</svg>